<svg id="圖層_1" data-name="圖層 1" xmlns="http://www.w3.org/2000/svg" viewBox="0 0 500 500"><defs><style>.cls-1{font-size:33.4px;fill:#898989;font-family:DidotLTStd-Bold, Didot LT Std;font-weight:700;}</style></defs><text class="cls-1" transform="translate(158.4 135.1) rotate(-28.73) scale(1.01 1)">C</text><text class="cls-1" transform="translate(179.4 123.41) rotate(-19.88) scale(1.01 1)">O</text><text class="cls-1" transform="translate(205.57 114.07) rotate(-11.03) scale(1.01 1)">L</text><text class="cls-1" transform="matrix(1.01, -0.04, 0.04, 1, 229.17, 109.32)">O</text><text class="cls-1" transform="translate(256.93 108.33) rotate(6.39) scale(1.01 1)">R</text><text class="cls-1" transform="translate(280.9 111.04) rotate(14.38) scale(1.01 1)">F</text><text class="cls-1" transform="matrix(0.93, 0.39, -0.39, 0.92, 303.06, 116.59)">U</text><text class="cls-1" transform="matrix(0.86, 0.52, -0.52, 0.85, 326.96, 126.66)">L</text><text class="cls-1" transform="translate(347.53 139.58) rotate(36.99) scale(1.01 1)"> </text><text class="cls-1" transform="translate(355.25 144.93) rotate(42.73) scale(1.01 1)">C</text><text class="cls-1" transform="matrix(0.63, 0.79, -0.78, 0.62, 373.04, 161.13)">O</text><text class="cls-1" transform="matrix(0.5, 0.88, -0.87, 0.49, 390.2, 182.94)">L</text><text class="cls-1" transform="translate(402.2 203.78) rotate(69.45) scale(1.01 1)">O</text><text class="cls-1" transform="matrix(0.2, 0.99, -0.98, 0.2, 411.84, 229.84)">R</text><text class="cls-1" transform="translate(416.61 253.44) rotate(86.62) scale(1.01 1)">F</text><text class="cls-1" transform="translate(418.09 276.25) rotate(94.97) scale(1.01 1)">U</text><text class="cls-1" transform="translate(415.8 302.09) rotate(103.65) scale(1.01 1)">L</text><text class="cls-1" transform="translate(409.7 325.57) rotate(109.52) scale(1.01 1)"> </text><text class="cls-1" transform="translate(406.92 334.54) rotate(115.39) scale(1.01 1)">C</text><text class="cls-1" transform="matrix(-0.57, 0.83, -0.83, -0.56, 396.77, 356.33)">O</text><text class="cls-1" transform="translate(381.01 379.19) rotate(133.19) scale(1.01 1)">L</text><text class="cls-1" transform="translate(364.67 396.84) rotate(142) scale(1.01 1)">O</text><text class="cls-1" transform="translate(342.71 413.84) rotate(150.82) scale(1.01 1)">R</text><text class="cls-1" transform="matrix(-0.94, 0.36, -0.36, -0.93, 321.64, 425.57)">F</text><text class="cls-1" transform="translate(300.37 433.94) rotate(167.19) scale(1.01 1)">U</text><text class="cls-1" transform="translate(275.05 439.64) rotate(175.67) scale(1.01 1)">L</text><text class="cls-1" transform="translate(250.79 441.11) rotate(-178.71) scale(1.01 1)"> </text><text class="cls-1" transform="translate(241.41 441.27) rotate(-173.05) scale(1.01 1)">C</text><text class="cls-1" transform="translate(217.5 438.52) rotate(-164.22) scale(1.01 1)">O</text><text class="cls-1" transform="matrix(-0.92, -0.42, 0.42, -0.91, 190.81, 430.85)">L</text><text class="cls-1" transform="translate(168.87 420.97) rotate(-146.53) scale(1.01 1)">O</text><text class="cls-1" transform="translate(145.78 405.56) rotate(-137.72) scale(1.01 1)">R</text><text class="cls-1" transform="translate(127.96 389.31) rotate(-129.71) scale(1.01 1)">F</text><text class="cls-1" transform="matrix(-0.52, -0.86, 0.85, -0.52, 113.26, 371.83)">U</text><text class="cls-1" transform="translate(99.81 349.64) rotate(-112.68) scale(1.01 1)">L</text><text class="cls-1" transform="translate(90.8 327.09) rotate(-106.81) scale(1.01 1)"> </text><text class="cls-1" transform="translate(87.72 318.24) rotate(-100.93) scale(1.01 1)">C</text><text class="cls-1" transform="matrix(-0.03, -1.01, 1, -0.03, 83, 294.66)">O</text><text class="cls-1" transform="translate(82.16 266.91) rotate(-83.11) scale(1.01 1)">L</text><text class="cls-1" transform="translate(84.88 243.01) rotate(-74.09) scale(1.01 1)">O</text><text class="cls-1" transform="matrix(0.42, -0.91, 0.91, 0.42, 92.6, 216.37)">R</text><text class="cls-1" transform="matrix(0.55, -0.85, 0.84, 0.55, 102.79, 194.53)">F</text><text class="cls-1" transform="translate(115.13 175.3) rotate(-48.6) scale(1.01 1)">U</text><text class="cls-1" transform="translate(132.34 155.87) rotate(-40.08) scale(1.01 1)">L</text><text class="cls-1" transform="matrix(0.83, -0.57, 0.56, 0.83, 151.16, 140.52)"> </text></svg>